<svg width="18" height="18" fill="none" xmlns="http://www.w3.org/2000/svg"><path d="M14.25 3h-.825A3.757 3.757 0 009.75 0h-1.5a3.757 3.757 0 00-3.675 3H3.75A3.755 3.755 0 000 6.75v7.5A3.754 3.754 0 003.75 18h10.5A3.754 3.754 0 0018 14.25v-7.5A3.755 3.755 0 0014.25 3zm-6-1.5h1.5A2.25 2.25 0 0111.862 3H6.138A2.25 2.25 0 018.25 1.5zm-4.5 3h10.5a2.25 2.25 0 012.25 2.25V9h-15V6.75A2.25 2.25 0 013.75 4.5zm10.5 12H3.75a2.25 2.25 0 01-2.25-2.25V10.5h6.75v.75a.75.75 0 101.5 0v-.75h6.75v3.75a2.25 2.25 0 01-2.25 2.25z" fill="#BAC8D3"/></svg>