<svg width="20" height="20" fill="none" xmlns="http://www.w3.org/2000/svg"><g clip-path="url(#a)" fill="#869FB2"><path d="M16.667 0H3.333A3.333 3.333 0 000 3.333v10a3.334 3.334 0 003.333 3.334H5.75l3.71 3.135a.834.834 0 001.076 0l3.714-3.135h2.417A3.333 3.333 0 0020 13.333v-10A3.333 3.333 0 0016.667 0zm1.666 13.333A1.667 1.667 0 0116.667 15H14.25c-.394 0-.775.14-1.076.394L10 18.075l-3.172-2.68A1.666 1.666 0 005.75 15H3.333a1.667 1.667 0 01-1.666-1.667v-10a1.667 1.667 0 011.666-1.666h13.334a1.667 1.667 0 011.666 1.666v10z"/><path d="M5.833 5.833H10a.833.833 0 000-1.667H5.833a.833.833 0 000 1.667zM14.167 7.5H5.833a.833.833 0 000 1.667h8.334a.833.833 0 000-1.667zm0 3.334H5.833a.833.833 0 100 1.666h8.334a.833.833 0 000-1.666z"/></g><defs><clipPath id="a"><path fill="#fff" d="M0 0h20v20H0z"/></clipPath></defs></svg>