<svg width="28" height="28" fill="none" xmlns="http://www.w3.org/2000/svg"><g clip-path="url(#a)"><path d="M22.167 3.5H14.55a1.189 1.189 0 01-.522-.117l-3.682-1.848a3.517 3.517 0 00-1.564-.368h-2.95A5.84 5.84 0 000 7v14a5.84 5.84 0 005.833 5.833h16.334A5.84 5.84 0 0028 21V9.333A5.84 5.84 0 0022.167 3.5zm-16.334 0h2.95c.18-.001.358.039.521.117l3.682 1.842a3.516 3.516 0 001.565.374h7.616a3.5 3.5 0 013.242 2.196l-23.076.13V7a3.5 3.5 0 013.5-3.5zm16.334 21H5.833a3.5 3.5 0 01-3.5-3.5V10.493l23.334-.132V21a3.5 3.5 0 01-3.5 3.5z" fill="#5F7D95"/></g><defs><clipPath id="a"><path fill="#fff" d="M0 0h28v28H0z"/></clipPath></defs></svg>