<svg width="16" height="16" fill="none" xmlns="http://www.w3.org/2000/svg"><g clip-path="url(#a)"><path d="M15.414 6.046L10.357.989a3.339 3.339 0 00-4.714 0L.586 6.046A1.985 1.985 0 000 7.46v6.545a2 2 0 002 2h12a2 2 0 002-2V7.46a1.986 1.986 0 00-.586-1.414zM10 14.671H6V12.05a2 2 0 114 0v2.622zm4.667-.666a.667.667 0 01-.667.666h-2.667V12.05a3.333 3.333 0 00-6.666 0v2.622H2a.667.667 0 01-.667-.666V7.46a.67.67 0 01.196-.471l5.056-5.056a2.005 2.005 0 012.83 0l5.056 5.058a.672.672 0 01.196.469v6.545z" fill="#4A6375"/></g><defs><clipPath id="a"><path fill="#fff" d="M0 0h16v16H0z"/></clipPath></defs></svg>