<svg width="16" height="16" fill="none" xmlns="http://www.w3.org/2000/svg"><g clip-path="url(#a)"><path d="M15.038 9.108L13.77 4.551a6.214 6.214 0 00-12.053.316l-.98 4.41a3.333 3.333 0 003.254 4.056h.742a3.333 3.333 0 006.534 0h.558a3.333 3.333 0 003.212-4.225zM8 14.667a2 2 0 01-1.877-1.334h3.754A2 2 0 018 14.667zm5.417-3.457a1.986 1.986 0 01-1.592.79H3.992A2 2 0 012.04 9.566l.98-4.41a4.88 4.88 0 019.466-.249l1.267 4.558a1.984 1.984 0 01-.335 1.745z" fill="#4A6375"/></g><defs><clipPath id="a"><path fill="#fff" d="M0 0h16v16H0z"/></clipPath></defs></svg>