<svg width="18" height="18" fill="none" xmlns="http://www.w3.org/2000/svg"><g clip-path="url(#a)"><path d="M10.449 3a2.303 2.303 0 012.301 2.301.75.75 0 101.5 0v-.092A3.805 3.805 0 0010.449 1.5H9.75V.75a.75.75 0 10-1.5 0v.75h-.699a3.801 3.801 0 00-1.2 7.406l1.899.634V15h-.699a2.303 2.303 0 01-2.301-2.301.75.75 0 10-1.5 0v.092A3.805 3.805 0 007.551 16.5h.699v.75a.75.75 0 101.5 0v-.75h.699a3.801 3.801 0 001.2-7.406L9.75 8.46V3h.699zm.728 7.516A2.301 2.301 0 0110.449 15H9.75v-4.96l1.427.476zM8.25 7.96l-1.425-.476A2.301 2.301 0 017.551 3h.699v4.96z" fill="#BAC8D3"/></g><defs><clipPath id="a"><path fill="#fff" d="M0 0h18v18H0z"/></clipPath></defs></svg>