<svg width="28" height="28" fill="none" xmlns="http://www.w3.org/2000/svg"><g clip-path="url(#a)"><path d="M23.273 6.459l-4.065-4.067A8.119 8.119 0 0013.433 0H8.165a5.84 5.84 0 00-5.833 5.833v16.334A5.84 5.84 0 008.165 28h11.667a5.84 5.84 0 005.833-5.833v-9.935a8.108 8.108 0 00-2.392-5.773zm-1.65 1.65a5.8 5.8 0 01.911 1.224h-5.035a1.167 1.167 0 01-1.167-1.166V3.13c.447.249.859.555 1.226.91l4.065 4.067zm1.709 14.058a3.5 3.5 0 01-3.5 3.5H8.165a3.5 3.5 0 01-3.5-3.5V5.833a3.5 3.5 0 013.5-3.5h5.268c.191 0 .377.038.566.055v5.779a3.5 3.5 0 003.5 3.5h5.778c.018.189.055.373.055.565v9.935z" fill="#5F7D95"/></g><defs><clipPath id="a"><path fill="#fff" d="M0 0h28v28H0z"/></clipPath></defs></svg>