<svg width="20" height="19" fill="none" xmlns="http://www.w3.org/2000/svg"><path d="M14.584.598A5.334 5.334 0 0010 3.348 5.333 5.333 0 005.417.598 5.667 5.667 0 000 6.473c0 3.789 3.988 7.927 7.333 10.733a4.145 4.145 0 005.334 0C16.012 14.4 20 10.262 20 6.473A5.666 5.666 0 0014.584.598zM11.596 15.93a2.478 2.478 0 01-3.192 0c-4.281-3.592-6.737-7.04-6.737-9.458a4 4 0 013.75-4.209 4 4 0 013.75 4.209.833.833 0 001.666 0 4 4 0 013.75-4.209 4 4 0 013.75 4.209c0 2.419-2.455 5.866-6.737 9.455v.003z" fill="#869FB2"/></svg>