<svg width="16" height="16" fill="none" xmlns="http://www.w3.org/2000/svg"><path d="M14.103 13.16a7.969 7.969 0 000-10.32l.574-.574a.667.667 0 00-.944-.943l-.573.574a7.97 7.97 0 00-10.321 0l-.574-.574a.667.667 0 00-.942.944l.574.573a7.97 7.97 0 000 10.321l-.574.574a.668.668 0 10.944.942l.573-.574a7.97 7.97 0 0010.321 0l.574.574a.666.666 0 00.942-.944l-.574-.572zM14.667 8a6.632 6.632 0 01-1.508 4.216l-2.381-2.38a3.31 3.31 0 000-3.671l2.38-2.381A6.632 6.632 0 0114.668 8zM6 8a2 2 0 114 0 2 2 0 01-4 0zm2-6.667a6.633 6.633 0 014.216 1.508l-2.38 2.381a3.31 3.31 0 00-3.671 0l-2.381-2.38A6.633 6.633 0 018 1.332zM1.333 8a6.633 6.633 0 011.508-4.216l2.381 2.38a3.31 3.31 0 000 3.671l-2.38 2.381A6.633 6.633 0 011.332 8zM8 14.667a6.632 6.632 0 01-4.216-1.508l2.38-2.381a3.31 3.31 0 003.671 0l2.381 2.38A6.632 6.632 0 018 14.668z" fill="#4A6375"/></svg>