<svg width="16" height="16" fill="none" xmlns="http://www.w3.org/2000/svg"><path d="M7.999 5.333a2.667 2.667 0 100 5.334 2.667 2.667 0 000-5.334zm0 4a1.333 1.333 0 110-2.666 1.333 1.333 0 010 2.666z" fill="#4A6375"/><path d="M14.195 9.267l-.296-.171a6.07 6.07 0 000-2.193l.296-.171a2.002 2.002 0 00-2-3.467l-.297.172a5.984 5.984 0 00-1.9-1.095V2a2 2 0 10-4 0v.342A5.985 5.985 0 004.1 3.439l-.298-.172a2.001 2.001 0 10-2 3.466l.296.171a6.067 6.067 0 000 2.193l-.296.171a2.001 2.001 0 002 3.467l.297-.172c.56.48 1.204.85 1.9 1.095V14a2 2 0 004 0v-.342a5.985 5.985 0 001.898-1.097l.298.172a2.001 2.001 0 002-3.467zm-1.7-2.518a4.698 4.698 0 010 2.5.667.667 0 00.31.756l.723.417a.667.667 0 11-.667 1.155l-.724-.418a.666.666 0 00-.81.11 4.657 4.657 0 01-2.162 1.25.667.667 0 00-.5.646V14a.667.667 0 11-1.334 0v-.835a.667.667 0 00-.5-.646 4.656 4.656 0 01-2.162-1.252.666.666 0 00-.81-.11l-.722.418a.668.668 0 11-.667-1.155l.723-.417a.667.667 0 00.309-.756 4.699 4.699 0 010-2.5.667.667 0 00-.31-.752l-.723-.418a.667.667 0 11.667-1.155l.724.419a.667.667 0 00.81-.108 4.656 4.656 0 012.161-1.25.667.667 0 00.5-.648V2a.667.667 0 011.334 0v.835a.667.667 0 00.5.646 4.656 4.656 0 012.163 1.252.666.666 0 00.81.11l.723-.418a.666.666 0 11.666 1.155l-.722.417a.667.667 0 00-.31.753z" fill="#4A6375"/></svg>