<svg width="18" height="18" fill="none" xmlns="http://www.w3.org/2000/svg"><g clip-path="url(#a)" fill="#BAC8D3"><path d="M17.25 16.5h-15a.75.75 0 01-.75-.75v-15a.75.75 0 00-1.5 0v15A2.25 2.25 0 002.25 18h15a.75.75 0 100-1.5z"/><path d="M11.25 15a.75.75 0 00.75-.75V9a.75.75 0 10-1.5 0v5.25a.75.75 0 00.75.75zm-6 0a.75.75 0 00.75-.75V9a.75.75 0 00-1.5 0v5.25a.75.75 0 00.75.75zm9 0a.75.75 0 00.75-.75v-9a.75.75 0 10-1.5 0v9a.75.75 0 00.75.75zm-6 0a.75.75 0 00.75-.75v-9a.75.75 0 00-1.5 0v9a.75.75 0 00.75.75z"/></g><defs><clipPath id="a"><path fill="#fff" d="M0 0h18v18H0z"/></clipPath></defs></svg>